PathFileType	4	(X/Y/Z)	25_coords_data.trc
DataRate	CameraRate	NumFrames	NumMarkers	Units	OrigDataRate	OrigDataStartFrame	OrigNumFrames
30.0	30.0	8	21	m	30.0	1	59
Frame#	Time	THUMB_TIP	THUMB_IP	THUMB_MCP	THUMB_CMC	INDEX_TIP	INDEX_DIP	INDEX_PIP	INDEX_MCP	MIDDLE_TIP	MIDDLE_DIP	MIDDLE_PIP	MIDDLE_MCP	RING_TIP	RING_DIP	RING_PIP	RING_MCP	PINKY_TIP	PINKY_DIP	PINKY_PIP	PINKY_MCP	WRIST
X1	Y1	Z1	X2	Y2	Z2	X3	Y3	Z3	X4	Y4	Z4	X5	Y5	Z5	X6	Y6	Z6	X7	Y7	Z7	X8	Y8	Z8	X9	Y9	Z9	X10	Y10	Z10	X11	Y11	Z11	X12	Y12	Z12	X13	Y13	Z13	X14	Y14	Z14	X15	Y15	Z15	X16	Y16	Z16	X17	Y17	Z17	X18	Y18	Z18	X19	Y19	Z19	X20	Y20	Z20	X21	Y21	Z21
0	0.0	-0.015585599899291992	-0.09385769653320312	0.974177978515625	-0.039862899780273436	-0.09616590118408203	0.966469970703125	-0.06552619934082031	-0.07754889678955078	0.9619569702148437	-0.07317790222167969	-0.04636679840087891	0.9652160034179688	-0.0185802001953125	-0.14818299865722656	0.8712830200195313	-0.026964399337768556	-0.13218600463867186	0.8861950073242187	-0.03441389846801758	-0.11296900177001953	0.8951420288085937	-0.04543460083007812	-0.07494039916992187	0.9175239868164062	-0.03408319854736328	-0.08462809753417969	0.95977197265625	-0.022009599685668946	-0.09911109924316407	0.9515009765625	-0.011888500213623046	-0.09974859619140625	0.927969970703125	-0.029240299224853515	-0.05725329971313477	0.914594970703125	-0.024147899627685546	-0.08151699829101562	0.9695170288085937	-0.012035499572753907	-0.089256103515625	0.9586060180664062	0.0027887001037597654	-0.0851946029663086	0.9361240234375	-0.013711500167846679	-0.0479656982421875	0.9262940063476562	0.03975	-0.08677269744873047	0.9212160034179687	0.025848899841308594	-0.07653970336914062	0.9310170288085937	0.011301199913024902	-0.06501119995117187	0.9378460083007812	-0.008220109939575195	-0.04756689834594727	0.9466699829101562	-0.07861029815673828	-0.003949140071868896	0.9733800048828125
1	0.03333333333333333	-0.015757399559020994	-0.09366290283203126	0.9730800170898437	-0.03977180099487305	-0.09540540313720704	0.9670709838867187	-0.06403189849853516	-0.0777957992553711	0.9615009765625	-0.07097920227050782	-0.04823089981079102	0.96477099609375	-0.017803400039672852	-0.14855499267578126	0.87225	-0.025953699111938476	-0.1313780059814453	0.8865830078125	-0.03377209854125977	-0.11237200164794922	0.8970869750976562	-0.04522949981689453	-0.07435790252685547	0.9144409790039062	-0.0343129997253418	-0.08280210113525391	0.9584719848632812	-0.02261989974975586	-0.09762750244140625	0.9520549926757812	-0.011526300430297851	-0.09941470336914063	0.9286510009765625	-0.027337900161743166	-0.05894499969482422	0.9144849853515625	-0.024984500885009767	-0.07858580017089843	0.9681409912109376	-0.010241000175476075	-0.08823860168457032	0.9587130126953125	0.003622580051422119	-0.08510070037841796	0.93656201171875	-0.014128399848937987	-0.04809180068969727	0.9266259765625	0.04124330139160156	-0.08668260192871094	0.9219739990234375	0.02620400047302246	-0.075814697265625	0.9314869995117188	0.012135299682617187	-0.06535769653320313	0.9380819702148437	-0.00830010986328125	-0.04652930068969727	0.9464929809570313	-0.07540039825439453	-0.00498376989364624	0.9706110229492187
2	0.06666666666666667	-0.01530459976196289	-0.09349800109863281	0.9728790283203125	-0.03912820053100586	-0.09552189636230468	0.967125	-0.0629213981628418	-0.07803959655761719	0.9620999755859375	-0.07044390106201172	-0.048460399627685544	0.9648770141601563	-0.016962900161743164	-0.14818899536132812	0.8719180297851562	-0.02523419952392578	-0.13108099365234374	0.8863140258789063	-0.03312310028076172	-0.11223000335693359	0.8968800048828125	-0.04494120025634766	-0.07431349945068359	0.9145440063476562	-0.03378620147705078	-0.08332740020751953	0.957406005859375	-0.021997900009155275	-0.0976449966430664	0.9519429931640625	-0.010935700416564942	-0.09930249786376953	0.9285020141601562	-0.02709670066833496	-0.05885540008544922	0.9144149780273437	-0.025067899703979494	-0.07963459777832031	0.9696580200195313	-0.009774499893188477	-0.08812860107421874	0.958625	0.0040115900039672855	-0.08486740112304687	0.9364329833984375	-0.013838700294494629	-0.04788700103759766	0.926635009765625	0.041581600189208985	-0.08691570281982422	0.9223779907226562	0.02659980010986328	-0.07592630004882812	0.93172998046875	0.012526000022888183	-0.06540149688720703	0.938302001953125	-0.008009659767150878	-0.0464015998840332	0.9466380004882813	-0.07534239959716797	-0.00485476016998291	0.9711699829101562
3	0.1	-0.014693099975585938	-0.09352570343017579	0.9726519775390625	-0.03871969985961914	-0.09556179809570313	0.9668629760742188	-0.06252539825439453	-0.07800789642333984	0.96197900390625	-0.07017220306396485	-0.048206199645996095	0.9647979736328125	-0.015871999740600586	-0.14754100036621093	0.8713560180664063	-0.024275800704956055	-0.1305679931640625	0.8857860107421875	-0.03240999984741211	-0.11177300262451172	0.8964019775390625	-0.04457429885864258	-0.07419989776611328	0.9141710205078125	-0.03355229949951172	-0.08273149871826171	0.9579769897460938	-0.021315099716186524	-0.09741739654541015	0.9514810180664063	-0.010296199798583984	-0.09899430084228515	0.9280880126953125	-0.026773300170898438	-0.05864049911499023	0.914156982421875	-0.02440559959411621	-0.07967520141601563	0.9692119750976562	-0.009738030433654786	-0.0876365966796875	0.9583839721679688	0.00451600980758667	-0.08453849792480468	0.9360330200195313	-0.013662599563598632	-0.047677101135253905	0.9263389892578126	0.04192440032958984	-0.08666709899902343	0.9219030151367188	0.027018999099731444	-0.07563179779052734	0.9312930297851563	0.012888500213623047	-0.06507730102539062	0.9379249877929687	-0.007600339889526367	-0.046088401794433596	0.9462979736328125	-0.07516100311279297	-0.004852849960327149	0.9718939819335938
4	0.13333333333333333	-0.015300700187683106	-0.09332469940185546	0.9728699951171875	-0.038922798156738284	-0.09538600158691406	0.9667940063476562	-0.062493900299072265	-0.07792120361328125	0.9618629760742188	-0.07017389678955079	-0.048052299499511716	0.9647239990234375	-0.015244000434875489	-0.14736500549316406	0.8714429931640625	-0.023864200592041016	-0.1303800048828125	0.885864990234375	-0.03210810089111328	-0.11165299987792969	0.8963699951171875	-0.044226200103759765	-0.07416449737548828	0.9141719970703125	-0.03347050094604492	-0.08260140228271484	0.9576840209960937	-0.021433300018310546	-0.0971884994506836	0.9512369995117187	-0.010085200309753418	-0.09886969757080079	0.9280430297851563	-0.02669930076599121	-0.05858459854125977	0.9141710205078125	-0.023770799636840822	-0.07868160247802734	0.9677109985351563	-0.009266050338745117	-0.08758860015869141	0.9581110229492188	0.004692709922790527	-0.08436389923095704	0.9362990112304688	-0.013480400085449219	-0.04749309921264649	0.92635302734375	0.04218099975585937	-0.08622769927978516	0.9217739868164062	0.027226299285888673	-0.07525379943847656	0.9312360229492187	0.013087900161743164	-0.06479440307617187	0.9379349975585938	-0.00754380989074707	-0.045945999145507815	0.9462969970703125	-0.07498090362548829	-0.004993330001831055	0.9709180297851563
5	0.16666666666666666	-0.014804699897766112	-0.093427001953125	0.9725910034179688	-0.038904701232910156	-0.09531230163574218	0.966760986328125	-0.0625176010131836	-0.07794439697265625	0.9614669799804687	-0.06999359893798827	-0.048257801055908205	0.9646909790039062	-0.015341500282287597	-0.1473000030517578	0.8713930053710938	-0.02388759994506836	-0.13030000305175782	0.8858070068359375	-0.032091899871826174	-0.11153900146484375	0.8962949829101563	-0.044467201232910154	-0.07408419799804687	0.9140059814453125	-0.03346009826660156	-0.08256719970703125	0.9579190063476563	-0.02124530029296875	-0.09729530334472657	0.9512440185546875	-0.010159199714660644	-0.098752197265625	0.9278779907226562	-0.026795000076293946	-0.05856449890136719	0.9140059814453125	-0.023521099090576172	-0.07810320281982422	0.9665659790039063	-0.008933429718017577	-0.0874574966430664	0.9576959838867187	0.004904190063476563	-0.08402200317382813	0.9358040161132812	-0.013695799827575683	-0.04732580184936523	0.9260770263671875	0.042424198150634765	-0.08527249908447265	0.9213380126953125	0.027381500244140624	-0.07457350158691406	0.93068798828125	0.013109999656677246	-0.06423670196533203	0.9374030151367188	-0.0075977897644042966	-0.045689800262451175	0.9457210083007812	-0.07516190338134765	-0.004913219928741455	0.970656982421875
6	0.2	-0.014627400398254395	-0.09363030242919922	0.9720770263671875	-0.03807749938964844	-0.0953501968383789	0.9665150146484375	-0.06262799835205078	-0.07781079864501952	0.9612230224609375	-0.07007779693603515	-0.04824489974975586	0.9644810180664063	-0.015488100051879884	-0.14710000610351562	0.8710579833984375	-0.024058799743652343	-0.1301269989013672	0.8854500122070312	-0.03227239990234375	-0.11142299652099609	0.8959530029296875	-0.044710201263427736	-0.07390149688720703	0.9136170043945312	-0.033576499938964846	-0.08290760040283203	0.9575819702148437	-0.021385900497436522	-0.09715519714355468	0.9506690063476563	-0.010269200325012207	-0.09864219665527343	0.9273350219726563	-0.02701180076599121	-0.05839310073852539	0.9137039794921875	-0.023653400421142577	-0.0782261962890625	0.9669149780273437	-0.009083769798278808	-0.08715339660644532	0.9570809936523438	0.0048986501693725586	-0.08379989624023437	0.9352960205078125	-0.013809300422668458	-0.04715940093994141	0.9257520141601563	0.04247159957885742	-0.08468609619140625	0.9204400024414062	0.027431900024414063	-0.07408429718017578	0.9300269775390625	0.013110899925231933	-0.06404989624023437	0.9370809936523438	-0.007706069946289062	-0.04572359848022461	0.9457119750976563	-0.07510449981689453	-0.004906740188598633	0.9706820068359375
7	0.23333333333333334	-0.015137999534606934	-0.09358599853515626	0.97239697265625	-0.03876279830932617	-0.09530439758300781	0.9666950073242188	-0.06296379852294921	-0.07791410064697266	0.9609840087890625	-0.07057160186767578	-0.04794219970703125	0.9642960205078125	-0.01566950035095215	-0.14722599792480467	0.8712479858398438	-0.024226200103759764	-0.13023699951171874	0.8855650024414062	-0.032465198516845706	-0.11151899719238281	0.8960700073242187	-0.04485540008544922	-0.07392240142822265	0.91360498046875	-0.033317100524902346	-0.08270379638671875	0.9579879760742187	-0.02151009941101074	-0.09718620300292968	0.9507979736328125	-0.010549799919128418	-0.09866609954833984	0.9274429931640625	-0.027280899047851564	-0.05842819976806641	0.91368798828125	-0.024574600219726562	-0.07903079986572266	0.9685499877929687	-0.009376589775085448	-0.08707389831542969	0.9571220092773437	0.004623899936676026	-0.08387640380859375	0.9353930053710937	-0.01409179973602295	-0.047217098236083985	0.925739990234375	0.04228179931640625	-0.08466850280761719	0.9205449829101563	0.027194000244140624	-0.07411060333251954	0.9300419921875	0.012883000373840332	-0.06396269989013671	0.936968017578125	-0.00796446990966797	-0.04565169906616211	0.9457130126953125	-0.07571289825439453	-0.0047190899848937986	0.9709450073242187
